<?xml version="1.0" encoding="UTF-8" standalone="no" ?>
<!DOCTYPE svg PUBLIC "-//W3C//DTD SVG 1.1//EN" "http://www.w3.org/Graphics/SVG/1.1/DTD/svg11.dtd">
<svg xmlns="http://www.w3.org/2000/svg" xmlns:xlink="http://www.w3.org/1999/xlink" version="1.1" width="500" height="500" viewBox="0 0 500 500" xml:space="preserve">
<desc>Created with Fabric.js 3.6.3</desc>
<defs>
</defs>
<g transform="matrix(9.60061824736186 0 0 9.60061824736186 250 250)"  >
<linearGradient id="SVGID_77231" gradientUnits="userSpaceOnUse" gradientTransform="matrix(1 0 0 1 2.499973223361053 4.829945500165721)"  x1="0" y1="0" x2="44.96695166355025" y2="40.34005449983428">
<stop offset="0%" style="stop-color:rgb(255,218,78);stop-opacity: 1"/>
<stop offset="32%" style="stop-color:rgb(251,222,138);stop-opacity: 1"/>
<stop offset="68%" style="stop-color:rgb(216,165,23);stop-opacity: 1"/>
<stop offset="100%" style="stop-color:rgb(246,190,33);stop-opacity: 1"/>
</linearGradient>
<path style="stroke: none; stroke-width: 0; stroke-dasharray: none; stroke-linecap: butt; stroke-dashoffset: 0; stroke-linejoin: miter; stroke-miterlimit: 4; fill: url(#SVGID_77231); fill-rule: nonzero; opacity: 1;"  transform=" translate(-24.983449055136177, -24.99997275008286)" d="M 2.5 6.72 A 1.88 1.88 0 0 1 4.39 4.83 H 8 a 4.4 4.4 0 0 1 4 2.52 H 44.35 a 3.15 3.15 0 0 1 3 4 l -3.23 12 a 5.68 5.68 0 0 1 -5.48 4.2 H 16 l 0.43 2.25 a 1.88 1.88 0 0 0 1.85 1.53 H 41 a 1.9 1.9 0 0 1 0 3.79 H 18.23 a 5.68 5.68 0 0 1 -5.57 -4.61 L 8.6 9.12 A 0.63 0.63 0 0 0 8 8.61 H 4.39 A 1.88 1.88 0 0 1 2.5 6.72 Z M 12.59 41.39 a 3.78 3.78 0 1 1 3.78 3.78 a 3.78 3.78 0 0 1 -3.78 -3.78 Z m 26.47 -3.78 a 3.78 3.78 0 0 1 0 7.56 h 0 a 3.78 3.78 0 0 1 0 -7.56 Z" stroke-linecap="round" />
</g>
</svg>