<svg width="56" height="56" viewBox="0 0 56 56" fill="none" xmlns="http://www.w3.org/2000/svg">
<path d="M52.64 28.582C52.64 26.762 52.4767 25.012 52.1733 23.332H28V33.272H41.8133C41.2067 36.4687 39.3867 39.1754 36.6567 40.9954V47.4587H44.9867C49.84 42.9787 52.64 36.3987 52.64 28.582Z" fill="#4285F4"/>
<path d="M28.0002 53.6651C34.9302 53.6651 40.7402 51.3784 44.9869 47.4584L36.6569 40.9951C34.3702 42.5351 31.4536 43.4684 28.0002 43.4684C21.3269 43.4684 15.6569 38.9651 13.6269 32.8984H5.08691V39.5251C9.31025 47.9018 17.9669 53.6651 28.0002 53.6651Z" fill="#34A853"/>
<path d="M13.6263 32.8761C13.113 31.3361 12.8097 29.7028 12.8097 27.9994C12.8097 26.2961 13.113 24.6628 13.6263 23.1228V16.4961H5.08634C3.33634 19.9494 2.33301 23.8461 2.33301 27.9994C2.33301 32.1528 3.33634 36.0494 5.08634 39.5028L11.7363 34.3228L13.6263 32.8761Z" fill="#FBBC05"/>
<path d="M28.0002 12.552C31.7802 12.552 35.1402 13.8587 37.8236 16.3787L45.1736 9.0287C40.7169 4.87536 34.9302 2.33203 28.0002 2.33203C17.9669 2.33203 9.31025 8.09537 5.08691 16.4954L13.6269 23.122C15.6569 17.0554 21.3269 12.552 28.0002 12.552Z" fill="#EA4335"/>
</svg>
