<?xml version="1.0" encoding="UTF-8" standalone="no" ?>
<!DOCTYPE svg PUBLIC "-//W3C//DTD SVG 1.1//EN" "http://www.w3.org/Graphics/SVG/1.1/DTD/svg11.dtd">
<svg xmlns="http://www.w3.org/2000/svg" xmlns:xlink="http://www.w3.org/1999/xlink" version="1.1" width="500" height="500" viewBox="0 0 500 500" xml:space="preserve">
<desc>Created with Fabric.js 3.6.3</desc>
<defs>
</defs>
<g transform="matrix(1 0 0 1 250.5 251.5)"  >
<rect style="stroke: none; stroke-width: 1; stroke-dasharray: none; stroke-linecap: butt; stroke-dashoffset: 0; stroke-linejoin: miter; stroke-miterlimit: 4; fill: rgb(241,242,243); fill-rule: nonzero; opacity: 1;"  x="-250" y="-250" rx="0" ry="0" width="500" height="500" />
</g>
<g transform="matrix(1 0 0 1 250.25 396.7998658613935)" style=""  ><path fill="#000000" opacity="1" d="M-151.31-7.84L-162.90-7.84L-162.90-9.26L-158.41-10.23L-157.22-42.74L-162.11-43.94L-162.11-45.36L-153.30-45.36L-139.48-13.01L-125.38-45.36L-116.74-45.36L-116.74-43.94L-121.52-42.80L-120.55-10.23L-116.57-9.26L-116.57-7.84L-128.28-7.84L-128.28-9.26L-124.08-10.17L-124.70-41.55L-139.60-7.55L-140.79-7.55L-155.23-41.78L-155.91-10.17L-151.31-9.26L-151.31-7.84Z"/><path fill="#000000" opacity="1" d="M-82.40-7.84L-109.46-7.84L-109.46-9.26L-105.03-10.23L-105.03-42.97L-109.46-43.94L-109.46-45.36L-84.00-45.36L-84.00-36.15L-85.13-36.15L-87.52-43.37L-101.62-43.37L-101.62-28.19L-91.27-28.19L-89.85-32.91L-88.71-32.91L-88.71-21.60L-89.85-21.60L-91.27-26.20L-101.62-26.20L-101.62-9.83L-85.93-9.83L-83.54-17.62L-82.40-17.62L-82.40-7.84Z"/><path fill="#000000" opacity="1" d="M-62.51-7.84L-74.73-7.84L-74.73-9.26L-70.18-10.23L-70.18-42.97L-74.73-43.94L-74.73-45.36L-63.47-45.36Q-57.50-45.36-54.06-42.89Q-50.62-40.41-50.62-36.09L-50.62-36.09Q-50.62-32.68-52.81-30.29Q-55.00-27.91-58.58-26.77L-58.58-26.77L-47.61-10.00L-43.86-9.26L-43.86-7.84L-50.45-7.84L-61.82-25.63L-66.77-25.63L-66.77-10.28L-62.51-9.26L-62.51-7.84ZM-63.08-43.37L-63.08-43.37L-66.77-43.37L-66.77-27.62L-62.73-27.62Q-59.15-27.62-56.79-29.81Q-54.43-32.00-54.43-35.35L-54.43-35.35Q-54.43-39.05-56.76-41.21Q-59.10-43.37-63.08-43.37Z"/><path fill="#000000" opacity="1" d="M-21.80-7.27L-21.80-7.27Q-27.09-7.27-31.24-9.68Q-35.39-12.10-37.78-16.22Q-40.16-20.34-40.16-25.57L-40.16-25.57Q-40.16-29.90-38.66-33.59Q-37.15-37.29-34.48-40.07Q-31.81-42.86-28.31-44.39Q-24.82-45.93-20.84-45.93L-20.84-45.93Q-16.86-45.93-14.41-45.07Q-11.97-44.22-9.64-43.14L-9.64-43.14L-9.35-34.33L-10.55-34.33L-12.82-40.87Q-15.04-42.52-17.00-43.34Q-18.96-44.16-21.29-44.16L-21.29-44.16Q-25.95-44.16-29.48-41.95Q-33.00-39.73-35.02-36.01Q-37.04-32.28-37.04-27.85L-37.04-27.85Q-37.04-22.22-34.93-18.01Q-32.83-13.81-29.19-11.45Q-25.55-9.09-21.01-9.09L-21.01-9.09Q-18.39-9.09-16.51-9.71Q-14.64-10.34-12.99-11.36L-12.99-11.36L-9.92-18.53L-8.78-18.53L-9.29-10.05Q-10.94-9.20-12.65-8.58Q-14.35-7.95-16.54-7.61Q-18.73-7.27-21.80-7.27Z"/><path fill="#000000" opacity="1" d="M27.20-7.84L0.14-7.84L0.14-9.26L4.58-10.23L4.58-42.97L0.14-43.94L0.14-45.36L25.61-45.36L25.61-36.15L24.47-36.15L22.09-43.37L7.99-43.37L7.99-28.19L18.33-28.19L19.76-32.91L20.89-32.91L20.89-21.60L19.76-21.60L18.33-26.20L7.99-26.20L7.99-9.83L23.68-9.83L26.07-17.62L27.20-17.62L27.20-7.84Z"/><path fill="#000000" opacity="1" d="M43.63-7.84L33.06-7.84L33.06-9.26L36.07-9.94L50.57-45.64L51.76-45.64L66.20-10.00L69.61-9.26L69.61-7.84L57.50-7.84L57.50-9.26L62.34-10.00L57.56-22.05L43.18-22.05L38.57-10.00L43.63-9.26L43.63-7.84ZM50.28-40.47L43.97-24.04L56.76-24.04L50.28-40.47Z"/><path fill="#000000" opacity="1" d="M87.41-7.84L75.18-7.84L75.18-9.26L79.73-10.23L79.73-42.97L75.18-43.94L75.18-45.36L86.44-45.36Q92.41-45.36 95.85-42.89Q99.29-40.41 99.29-36.09L99.29-36.09Q99.29-32.68 97.10-30.29Q94.91-27.91 91.33-26.77L91.33-26.77L102.30-10.00L106.05-9.26L106.05-7.84L99.46-7.84L88.09-25.63L83.14-25.63L83.14-10.28L87.41-9.26L87.41-7.84ZM86.84-43.37L86.84-43.37L83.14-43.37L83.14-27.62L87.18-27.62Q90.76-27.62 93.12-29.81Q95.48-32.00 95.48-35.35L95.48-35.35Q95.48-39.05 93.15-41.21Q90.82-43.37 86.84-43.37Z"/><path fill="#000000" opacity="1" d="M122.03-7.84L109.75-7.84L109.75-9.26L114.18-10.23L114.18-42.97L109.75-43.94L109.75-45.36L122.03-45.36L122.03-43.94L117.59-42.97L117.59-10.23L122.03-9.26L122.03-7.84Z"/><path fill="#000000" opacity="1" d="M138.46-7.84L127.88-7.84L127.88-9.26L130.90-9.94L145.39-45.64L146.59-45.64L161.03-10.00L164.44-9.26L164.44-7.84L152.33-7.84L152.33-9.26L157.16-10.00L152.39-22.05L138.00-22.05L133.40-10.00L138.46-9.26L138.46-7.84ZM145.11-40.47L138.80-24.04L151.59-24.04L145.11-40.47Z"/><path fill="#000000" opacity="1" d="M-100.51 43.56L-113.36 43.56L-113.36 42.13L-108.81 41.17L-108.81 8.42L-113.36 7.46L-113.36 6.03L-100.11 6.03Q-93.86 6.03-89.43 8.25Q-84.99 10.47-82.69 14.33Q-80.39 18.20-80.39 23.09L-80.39 23.09Q-80.39 29.40-82.86 33.98Q-85.33 38.55-89.82 41.05Q-94.31 43.56-100.51 43.56L-100.51 43.56ZM-99.71 8.02L-99.71 8.02L-105.40 8.02L-105.40 41.57L-99.43 41.57Q-94.77 41.57-91.33 39.43Q-87.89 37.30-85.99 33.55Q-84.08 29.80-84.08 24.85L-84.08 24.85Q-84.08 19.79-85.90 15.98Q-87.72 12.17-91.22 10.10Q-94.71 8.02-99.71 8.02Z"/><path fill="#000000" opacity="1" d="M-60.15 43.56L-72.43 43.56L-72.43 42.13L-67.99 41.17L-67.99 8.42L-72.43 7.46L-72.43 6.03L-60.15 6.03L-60.15 7.46L-64.58 8.42L-64.58 41.17L-60.15 42.13L-60.15 43.56Z"/><path fill="#000000" opacity="1" d="M-33.26 44.12L-33.26 44.12Q-38.71 44.12-43.01 41.74Q-47.30 39.35-49.74 35.23Q-52.19 31.10-52.19 25.82L-52.19 25.82Q-52.19 21.44-50.65 17.75Q-49.12 14.05-46.42 11.29Q-43.72 8.54-40.19 7.00Q-36.67 5.47-32.63 5.47L-32.63 5.47Q-29.68 5.47-27.57 5.84Q-25.47 6.20-23.82 6.83Q-22.17 7.46-20.52 8.25L-20.52 8.25L-20.24 17.06L-21.43 17.06L-23.71 10.53Q-26.09 8.76-28.23 8.00Q-30.36 7.23-32.97 7.23L-32.97 7.23Q-37.86 7.23-41.50 9.50Q-45.14 11.78-47.10 15.50Q-49.06 19.22-49.06 23.54L-49.06 23.54Q-49.06 29.23-46.82 33.35Q-44.57 37.47-40.85 39.69Q-37.12 41.91-32.69 41.91L-32.69 41.91Q-30.59 41.91-28.57 41.65Q-26.55 41.39-24.39 40.49L-24.39 40.49L-24.39 29.63L-29.33 28.49L-29.33 27.07L-16.54 27.07L-16.54 28.49L-20.98 29.46L-20.98 39.92Q-23.31 41.85-26.66 42.99Q-30.02 44.12-33.26 44.12Z"/><path fill="#000000" opacity="1" d="M2.56 43.56L-9.72 43.56L-9.72 42.13L-5.29 41.17L-5.29 8.42L-9.72 7.46L-9.72 6.03L2.56 6.03L2.56 7.46L-1.88 8.42L-1.88 41.17L2.56 42.13L2.56 43.56Z"/><path fill="#000000" opacity="1" d="M32.80 43.56L18.02 43.56L18.02 42.13L23.71 41.17L23.71 8.02L12.62 8.02L10.23 16.38L9.10 16.38L9.10 6.03L41.73 6.03L41.73 16.38L40.59 16.38L38.20 8.02L27.12 8.02L27.12 41.17L32.80 42.13L32.80 43.56Z"/><path fill="#000000" opacity="1" d="M54.46 43.56L43.89 43.56L43.89 42.13L46.90 41.45L61.40 5.75L62.59 5.75L77.03 41.39L80.44 42.13L80.44 43.56L68.33 43.56L68.33 42.13L73.17 41.39L68.39 29.34L54.01 29.34L49.40 41.39L54.46 42.13L54.46 43.56ZM61.11 10.92L54.80 27.35L67.59 27.35L61.11 10.92Z"/><path fill="#000000" opacity="1" d="M113.07 43.56L86.01 43.56L86.01 42.13L90.45 41.17L90.45 8.42L86.01 7.46L86.01 6.03L98.98 6.03L98.98 7.46L93.86 8.42L93.86 41.57L109.27 41.57L111.94 31.50L113.07 31.50L113.07 43.56Z"/></g><g transform="matrix(7.060720928139844 0 0 7.060720928139845 249.99999999999997 189.7986176632474)"  >
<path style="stroke: none; stroke-width: 0; stroke-dasharray: none; stroke-linecap: butt; stroke-dashoffset: 0; stroke-linejoin: miter; stroke-miterlimit: 4; fill: rgb(80,89,95); fill-rule: nonzero; opacity: 1;"  transform=" translate(-24.983449055136177, -24.99997275008286)" d="M 2.5 6.72 A 1.88 1.88 0 0 1 4.39 4.83 H 8 a 4.4 4.4 0 0 1 4 2.52 H 44.35 a 3.15 3.15 0 0 1 3 4 l -3.23 12 a 5.68 5.68 0 0 1 -5.48 4.2 H 16 l 0.43 2.25 a 1.88 1.88 0 0 0 1.85 1.53 H 41 a 1.9 1.9 0 0 1 0 3.79 H 18.23 a 5.68 5.68 0 0 1 -5.57 -4.61 L 8.6 9.12 A 0.63 0.63 0 0 0 8 8.61 H 4.39 A 1.88 1.88 0 0 1 2.5 6.72 Z M 12.59 41.39 a 3.78 3.78 0 1 1 3.78 3.78 a 3.78 3.78 0 0 1 -3.78 -3.78 Z m 26.47 -3.78 a 3.78 3.78 0 0 1 0 7.56 h 0 a 3.78 3.78 0 0 1 0 -7.56 Z" stroke-linecap="round" />
</g>
</svg>